<?xml version="1.0" encoding="utf-8"?>
<!-- Generator: Adobe Illustrator 19.0.1, SVG Export Plug-In . SVG Version: 6.00 Build 0)  -->
<svg version="1.1" id="Слой_1" xmlns="http://www.w3.org/2000/svg" xmlns:xlink="http://www.w3.org/1999/xlink" x="0px" y="0px"
	 viewBox="156 -181 512 512" style="enable-background:new 156 -181 512 512;" xml:space="preserve">
<style type="text/css">
	.st0{fill:#FFFFFF;}
</style>
<path class="st0" d="M529.4-181H294.6C218.2-181,156-118.8,156-42.4v234.8c0,76.4,62.2,138.6,138.6,138.6h234.8
	c76.4,0,138.6-62.2,138.6-138.6V-42.4C668-118.8,605.8-181,529.4-181z M638,192.4c0,59.9-48.7,108.6-108.6,108.6H294.6
	C234.7,301,186,252.3,186,192.4V-42.4c0-59.9,48.7-108.6,108.6-108.6h234.8C589.3-151,638-102.3,638-42.4V192.4z"/>
<path class="st0" d="M412-65C334.8-65,272-2.2,272,75s62.8,140,140,140s140-62.8,140-140S489.2-65,412-65z M412,185
	c-60.6,0-110-49.3-110-110c0-60.6,49.3-110,110-110c60.6,0,110,49.3,110,110C522,135.6,472.6,185,412,185z"/>
<path class="st0" d="M555.3-114.7c-22.8,0-41.4,18.6-41.4,41.4c0,22.8,18.6,41.4,41.4,41.4s41.4-18.6,41.4-41.4
	S578.2-114.7,555.3-114.7z M555.3-62c-6.3,0-11.4-5.1-11.4-11.4c0-6.3,5.1-11.4,11.4-11.4c6.3,0,11.4,5.1,11.4,11.4
	C566.7-67.1,561.6-62,555.3-62z"/>
</svg>
