<?xml version="1.0" encoding="utf-8"?>
<!-- Generator: Adobe Illustrator 19.0.1, SVG Export Plug-In . SVG Version: 6.00 Build 0)  -->
<svg version="1.1" id="Capa_1" xmlns="http://www.w3.org/2000/svg" xmlns:xlink="http://www.w3.org/1999/xlink" x="0px" y="0px"
	 viewBox="206 -231 612 612" style="enable-background:new 206 -231 612 612;" xml:space="preserve">
<style type="text/css">
	.st0{fill:#FFFFFF;}
</style>
<g>
	<g id="youtube">
		<g>
			<path class="st0" d="M695.6-149.4H328.4C260.9-149.4,206-94.5,206-27v204c0,67.5,54.9,122.4,122.4,122.4h367.2
				c67.5,0,122.4-54.9,122.4-122.4V-27C818-94.5,763.1-149.4,695.6-149.4z M790.8,177c0,52.5-42.7,95.2-95.2,95.2H328.4
				c-52.5,0-95.2-42.7-95.2-95.2V-27c0-52.5,42.7-95.2,95.2-95.2h367.2c52.5,0,95.2,42.7,95.2,95.2V177z M423.6,190.1L622.9,75
				L423.6-40.1V190.1z M450.8,7l117.7,68L450.8,143V7z"/>
		</g>
	</g>
</g>
</svg>
